<svg xmlns="http://www.w3.org/2000/svg" width="149" height="90" viewBox="0 0 149 90" fill="none"><path d="M50.8184 18.0886C50.6206 19.1801 50.2433 20.0657 49.6865 20.7453C49.1422 21.4163 48.4736 21.8751 47.681 22.1218C46.8988 22.3703 46.0511 22.4118 45.138 22.2463C44.2354 22.0827 43.4562 21.7464 42.8005 21.2373C42.1552 20.7301 41.6902 20.0659 41.4054 19.2446C41.133 18.4147 41.0958 17.454 41.2936 16.3625C41.4914 15.2709 41.8677 14.3906 42.4226 13.7215C42.988 13.0543 43.6618 12.5964 44.4439 12.3479C45.2385 12.0908 46.0766 12.0421 46.9583 12.2019C47.8609 12.3655 48.6339 12.7061 49.2772 13.2238C49.9329 13.7329 50.4032 14.3981 50.688 15.2193C50.9728 16.0406 51.0162 16.997 50.8184 18.0886ZM48.7875 17.7205C48.9872 16.6185 48.8875 15.7332 48.4883 15.0646C48.0996 14.398 47.4907 13.9895 46.6615 13.8392C45.8534 13.6928 45.1451 13.8625 44.5367 14.3485C43.9388 14.8364 43.54 15.6313 43.3402 16.7334C43.1386 17.8459 43.2322 18.7355 43.6208 19.4022C44.0095 20.0688 44.6184 20.4773 45.4476 20.6276C46.2768 20.7778 46.9903 20.609 47.5882 20.1212C48.1861 19.6333 48.5859 18.8331 48.7875 17.7205ZM54.651 17.8725L54.2601 20.0294L52.3237 19.6785L52.7431 17.3642C52.7906 17.1018 52.8935 16.8928 53.0518 16.7372C53.212 16.5711 53.4218 16.4302 53.6813 16.3146C54.0304 16.1828 54.4577 16.0976 54.9634 16.0592C55.469 16.0207 55.9999 16.0519 56.5562 16.1527C57.5428 16.3315 57.981 16.7253 57.8706 17.334C57.844 17.481 57.7983 17.6136 57.7335 17.7319C57.6706 17.8398 57.5991 17.9352 57.519 18.0183C57.4178 17.9783 57.2895 17.9387 57.134 17.8997C56.9803 17.8502 56.8143 17.8093 56.6359 17.7769C56.258 17.7085 55.8936 17.6858 55.5425 17.7089C55.2038 17.7234 54.9066 17.7779 54.651 17.8725ZM52.4407 19.033L54.36 19.4784L53.6296 23.5087C53.5399 23.525 53.4145 23.5294 53.2532 23.5218C53.0901 23.5248 52.9141 23.5091 52.7251 23.4749C52.3683 23.4102 52.1121 23.2988 51.9565 23.1405C51.8132 22.9736 51.7721 22.7222 51.8329 22.3864L52.4407 19.033ZM67.3954 20.1984L67.1301 21.6625L63.3201 20.9721L63.5855 19.5079L67.3954 20.1984ZM65.7289 21.4086L66.2306 20.345C67.0388 20.4915 67.6905 20.7234 68.1858 21.0408C68.6917 21.3601 69.0459 21.7387 69.2484 22.1765C69.4528 22.6038 69.5084 23.0746 69.4152 23.5889C69.2345 24.586 68.733 25.2593 67.9109 25.609C67.0906 25.9482 66.0087 25.996 64.6652 25.7525C64.4028 25.705 64.1161 25.6422 63.805 25.5641C63.5026 25.4985 63.1987 25.4109 62.8933 25.3013C62.5984 25.1937 62.3265 25.0794 62.0774 24.9584C61.5954 24.6867 61.3944 24.3305 61.4743 23.8897L62.8751 16.1596C62.9094 15.9707 62.9885 15.8332 63.1125 15.7473C63.2488 15.6528 63.411 15.5954 63.5989 15.5753C63.9767 15.5245 64.4056 15.5209 64.8855 15.5645C65.3673 15.5976 65.8601 15.6598 66.3639 15.7511C67.6234 15.9794 68.5595 16.3767 69.1724 16.943C69.7852 17.5094 70.0098 18.2439 69.8462 19.1465C69.7587 19.6293 69.5453 20.0297 69.2058 20.3476C68.8787 20.6569 68.4295 20.8627 67.8581 20.9652C67.2972 21.0695 66.6179 21.0493 65.8202 20.9048L65.8683 19.9216C66.4455 20.0262 66.8968 19.9888 67.222 19.8092C67.5472 19.6297 67.7479 19.33 67.824 18.9101C67.8982 18.5008 67.7916 18.1617 67.5043 17.8928C67.2188 17.6134 66.7508 17.4148 66.1 17.2969C65.8376 17.2493 65.5838 17.2142 65.3386 17.1914C65.0934 17.1687 64.884 17.1578 64.7104 17.1589L63.5092 23.7869C63.6991 23.8755 63.9339 23.956 64.2134 24.0283C64.493 24.1007 64.7693 24.1616 65.0422 24.211C65.6929 24.329 66.2229 24.3058 66.632 24.1414C67.0536 23.9685 67.3091 23.6354 67.3985 23.1421C67.4803 22.6908 67.3795 22.3202 67.0959 22.0303C66.8143 21.73 66.3586 21.5227 65.7289 21.4086ZM73.5925 21.3051L73.2016 23.462L71.2652 23.1111L71.6846 20.7968C71.7321 20.5344 71.835 20.3254 71.9933 20.1698C72.1535 20.0037 72.3633 19.8628 72.6227 19.7473C72.9719 19.6154 73.3992 19.5302 73.9048 19.4918C74.4105 19.4533 74.9414 19.4845 75.4977 19.5853C76.4843 19.7641 76.9224 20.1579 76.8121 20.7666C76.7855 20.9136 76.7398 21.0462 76.675 21.1646C76.6121 21.2724 76.5406 21.3678 76.4605 21.4509C76.3593 21.4109 76.231 21.3714 76.0754 21.3323C75.9218 21.2828 75.7558 21.2419 75.5773 21.2096C75.1995 21.1411 74.835 21.1184 74.484 21.1415C74.1453 21.156 73.8481 21.2105 73.5925 21.3051ZM71.3821 22.4656L73.3015 22.911L72.5711 26.9413C72.4814 26.9576 72.356 26.962 72.1947 26.9544C72.0316 26.9574 71.8555 26.9418 71.6666 26.9075C71.3098 26.8429 71.0535 26.7314 70.8979 26.5731C70.7547 26.4062 70.7136 26.1548 70.7744 25.819L71.3821 22.4656ZM84.6369 25.3067C84.4905 26.1149 84.2056 26.7896 83.7823 27.3307C83.3609 27.8614 82.8321 28.2372 82.1959 28.4579C81.5721 28.6701 80.8718 28.7058 80.0951 28.565C79.3185 28.4243 78.67 28.1442 78.1498 27.7247C77.6315 27.2947 77.2629 26.7564 77.0441 26.1096C76.8357 25.4648 76.8057 24.7331 76.9541 23.9144C77.1005 23.1062 77.3897 22.4377 77.8216 21.9089C78.2535 21.3802 78.7866 21.0106 79.4209 20.8004C80.0571 20.5796 80.7583 20.5387 81.5245 20.6775C82.2907 20.8164 82.9277 21.0998 83.4355 21.5279C83.9557 21.9474 84.3191 22.4848 84.5255 23.1401C84.7444 23.7868 84.7815 24.509 84.6369 25.3067ZM81.2449 22.2204C80.6677 22.1158 80.1731 22.2429 79.7611 22.6019C79.3597 22.9628 79.0905 23.521 78.9535 24.2767C78.8128 25.0534 78.867 25.6812 79.1163 26.16C79.3675 26.6282 79.787 26.9157 80.3747 27.0222C80.952 27.1268 81.4414 26.9987 81.8428 26.6378C82.2443 26.2769 82.5144 25.7134 82.6533 24.9472C82.7883 24.202 82.7312 23.59 82.4819 23.1112C82.2345 22.6219 81.8222 22.325 81.2449 22.2204ZM91.4178 25.3485C91.1767 25.9011 90.9075 26.4593 90.6102 27.0234C90.3148 27.5769 90.0355 28.1008 89.7725 28.5952C89.5114 29.079 89.2874 29.4775 89.1006 29.7905C88.9785 29.8659 88.8235 29.9137 88.6356 29.9339C88.4476 29.954 88.2224 29.9403 87.9601 29.8928C87.6767 29.8414 87.4271 29.7528 87.2114 29.627C87.0082 29.4926 86.8797 29.3338 86.8262 29.1507C86.7698 28.9237 86.7138 28.6046 86.6582 28.1934C86.6046 27.7717 86.5551 27.2966 86.51 26.7681C86.4753 26.2415 86.4393 25.6929 86.4017 25.1224C86.3747 24.5538 86.35 24.0019 86.3278 23.4667C86.316 22.9334 86.3095 22.4607 86.3084 22.0485C86.4447 21.954 86.6045 21.88 86.7876 21.8264C86.9813 21.7748 87.1883 21.769 87.4087 21.8089C87.6921 21.8603 87.9054 21.9694 88.0486 22.1362C88.1918 22.3031 88.2559 22.5478 88.2408 22.8703C88.2354 23.4981 88.2305 24.0934 88.2261 24.6563C88.2235 25.2087 88.2296 25.7139 88.2441 26.1718C88.2587 26.6297 88.2689 27.0218 88.2749 27.3481C88.2932 27.6658 88.3038 27.9062 88.3068 28.0694L88.3697 28.0808C88.4869 27.8527 88.6666 27.4896 88.9086 26.9914C89.1507 26.4933 89.4323 25.9264 89.7534 25.2908C90.087 24.6466 90.4172 23.991 90.744 23.3239C90.9043 23.2771 91.0669 23.2469 91.232 23.2335C91.4094 23.2114 91.6031 23.2194 91.813 23.2575C92.0859 23.3069 92.3082 23.396 92.48 23.5247C92.6537 23.6429 92.755 23.8022 92.7837 24.0025C92.8719 24.7123 92.9472 25.4034 93.0096 26.076C93.0844 26.74 93.1453 27.331 93.1924 27.849C93.2518 28.3585 93.2911 28.7396 93.3104 28.9924L93.3891 29.0067C93.7254 28.1679 94.0817 27.2785 94.458 26.3385C94.8343 25.3985 95.1782 24.4581 95.4896 23.5172C95.7805 23.4074 96.0834 23.3809 96.3983 23.438C96.6712 23.4875 96.8802 23.5904 97.0253 23.7468C97.1723 23.8926 97.2211 24.102 97.1716 24.3749C97.145 24.5219 97.0707 24.7523 96.9488 25.0663C96.8373 25.3821 96.6901 25.7457 96.5072 26.157C96.3348 26.5702 96.1418 27.0068 95.9284 27.4668C95.7149 27.9268 95.4991 28.37 95.2808 28.7966C95.0731 29.2251 94.8792 29.6073 94.6991 29.9433C94.5189 30.2792 94.3688 30.5393 94.2487 30.7235C94.139 30.7903 93.9745 30.831 93.7551 30.8454C93.5337 30.8703 93.2971 30.86 93.0452 30.8143C92.3945 30.6964 92.0452 30.4705 91.9973 30.1366C91.9284 29.7989 91.8547 29.3682 91.7762 28.8444C91.7081 28.3226 91.6424 27.7579 91.5791 27.1502C91.5263 26.5444 91.4725 25.9438 91.4178 25.3485ZM103.617 30.4212C103.484 31.1559 103.107 31.6837 102.485 32.0047C101.865 32.3151 101.035 32.3761 99.9963 32.1878C99.1567 32.0357 98.492 31.7851 98.0024 31.4362C97.5128 31.0873 97.306 30.703 97.3821 30.2831C97.4144 30.1047 97.4859 29.9496 97.5965 29.8179C97.709 29.6757 97.841 29.575 97.9927 29.5157C98.2524 29.7579 98.563 29.9877 98.9247 30.205C99.2865 30.4223 99.714 30.5756 100.207 30.665C101.099 30.8267 101.595 30.6347 101.694 30.0889C101.736 29.858 101.69 29.66 101.558 29.4951C101.427 29.3196 101.204 29.1709 100.89 29.049L100.036 28.6502C99.3 28.3434 98.7756 27.9773 98.4624 27.552C98.1597 27.1286 98.0626 26.6177 98.171 26.0195C98.2908 25.3583 98.6617 24.8672 99.2835 24.5463C99.9073 24.2148 100.702 24.1366 101.668 24.3116C102.171 24.4029 102.613 24.5372 102.993 24.7144C103.375 24.8812 103.659 25.079 103.845 25.3078C104.042 25.5386 104.116 25.7852 104.069 26.0476C104.036 26.226 103.965 26.3811 103.854 26.5128C103.756 26.6359 103.637 26.7228 103.498 26.7735C103.385 26.6772 103.226 26.5671 103.021 26.4432C102.828 26.3106 102.6 26.1934 102.337 26.0915C102.075 25.9791 101.808 25.8981 101.535 25.8487C101.126 25.7745 100.788 25.7838 100.522 25.8765C100.268 25.9606 100.12 26.1233 100.076 26.3647C100.044 26.5431 100.084 26.7077 100.198 26.8584C100.312 27.009 100.524 27.1506 100.836 27.283L101.605 27.6175C102.419 27.9709 102.985 28.377 103.303 28.8358C103.623 29.284 103.728 29.8125 103.617 30.4212ZM106.276 30.2526L106.443 28.8844L110.776 29.0193C110.817 28.6148 110.728 28.2408 110.508 27.8975C110.288 27.5542 109.916 27.3349 109.391 27.2398C108.856 27.1428 108.376 27.2509 107.95 27.5641C107.527 27.8668 107.247 28.3635 107.111 29.0543L107.01 29.8816C106.983 30.5704 107.151 31.1103 107.513 31.5013C107.887 31.8941 108.399 32.1495 109.049 32.2674C109.49 32.3473 109.911 32.3585 110.312 32.301C110.714 32.2331 111.04 32.1403 111.289 32.0228C111.419 32.1439 111.512 32.2856 111.57 32.4477C111.639 32.6013 111.659 32.762 111.629 32.93C111.579 33.2028 111.416 33.4171 111.138 33.5728C110.862 33.718 110.51 33.806 110.082 33.8367C109.654 33.8675 109.177 33.8353 108.652 33.7402C107.844 33.5938 107.152 33.3166 106.575 32.9085C106.011 32.492 105.605 31.9522 105.357 31.2893C105.119 30.6282 105.081 29.8517 105.242 28.9595C105.358 28.3193 105.56 27.7758 105.847 27.3292C106.134 26.8825 106.473 26.5322 106.866 26.2782C107.272 26.0156 107.714 25.8464 108.194 25.7708C108.676 25.6847 109.163 25.6863 109.657 25.7757C110.349 25.9012 110.927 26.1523 111.39 26.5289C111.865 26.8969 112.205 27.3541 112.41 27.9007C112.625 28.4491 112.674 29.0435 112.558 29.6837C112.505 29.9776 112.386 30.1838 112.202 30.3022C112.031 30.412 111.806 30.4579 111.527 30.4399L106.276 30.2526ZM6.94326 36.0081C7.55201 36.1184 8.0252 36.0795 8.36282 35.8913C8.70235 35.6927 8.9054 35.4097 8.97198 35.0423C9.03094 34.717 8.96304 34.4337 8.76827 34.1924C8.584 33.953 8.27427 33.718 7.83909 33.4874L6.87282 32.9871C6.38037 32.7136 5.9547 32.4304 5.5958 32.1378C5.24741 31.847 4.99439 31.5084 4.83674 31.1221C4.6915 30.7272 4.66548 30.2726 4.75868 29.7583C4.91274 28.9082 5.34935 28.2935 6.06849 27.9144C6.79812 27.5371 7.71396 27.4483 8.81601 27.648C9.40377 27.7545 9.9119 27.9117 10.3404 28.1194C10.7813 28.3185 11.1139 28.5468 11.3383 28.8043C11.5731 29.0637 11.6648 29.3351 11.6135 29.6184C11.5774 29.8179 11.4925 29.9868 11.359 30.1252C11.238 30.255 11.0954 30.3538 10.9313 30.4217C10.7223 30.1995 10.4192 29.9874 10.0222 29.7854C9.62712 29.5728 9.18292 29.4219 8.68962 29.3325C8.14384 29.2336 7.70594 29.2572 7.37593 29.4034C7.04591 29.5495 6.85046 29.7905 6.7896 30.1264C6.74015 30.3993 6.79991 30.6378 6.9689 30.8418C7.14838 31.0478 7.43662 31.2518 7.83362 31.4538L8.69825 31.887C9.55143 32.3234 10.1871 32.8235 10.6053 33.3871C11.0254 33.9402 11.1622 34.6208 11.0158 35.429C10.8598 36.2896 10.4027 36.9277 9.64448 37.3431C8.89674 37.7605 7.91412 37.8588 6.69662 37.6382C6.05638 37.5222 5.50198 37.3512 5.0334 37.1254C4.56483 36.8996 4.20548 36.6393 3.95535 36.3447C3.71571 36.0519 3.62347 35.7533 3.67863 35.449C3.72048 35.2181 3.83009 35.0319 4.00746 34.8906C4.18483 34.7493 4.36509 34.6519 4.54824 34.5984C4.77928 34.8788 5.0919 35.1576 5.48608 35.435C5.88027 35.7124 6.36599 35.9034 6.94326 36.0081ZM13.5343 35.8041L13.7009 34.4359L18.0343 34.5708C18.0751 34.1662 17.9857 33.7923 17.7661 33.4489C17.5464 33.1056 17.1742 32.8864 16.6494 32.7913C16.1141 32.6943 15.6338 32.8024 15.2085 33.1155C14.7851 33.4182 14.5054 33.915 14.3693 34.6058L14.2682 35.433C14.2409 36.1219 14.4087 36.6618 14.7714 37.0527C15.1447 37.4456 15.6567 37.701 16.3074 37.8189C16.7483 37.8988 17.169 37.91 17.5697 37.8525C17.9722 37.7845 18.298 37.6918 18.5469 37.5743C18.6768 37.6954 18.7703 37.837 18.8277 37.9992C18.8974 38.1527 18.9171 38.3135 18.8866 38.4814C18.8372 38.7543 18.6737 38.9686 18.3961 39.1243C18.1205 39.2694 17.7685 39.3574 17.3402 39.3882C16.9118 39.419 16.4352 39.3868 15.9104 39.2917C15.1023 39.1452 14.4099 38.868 13.8335 38.46C13.2694 38.0434 12.8631 37.5036 12.6147 36.8407C12.3767 36.1797 12.3386 35.4031 12.5003 34.511C12.6163 33.8707 12.8178 33.3273 13.1047 32.8806C13.3916 32.434 13.7315 32.0836 14.1244 31.8296C14.5298 31.567 14.9723 31.3979 15.4522 31.3223C15.9339 31.2361 16.4215 31.2377 16.9148 31.3271C17.6075 31.4527 18.1853 31.7037 18.6482 32.0803C19.1236 32.4483 19.4635 32.9056 19.668 33.4521C19.8829 34.0006 19.9324 34.5949 19.8164 35.2352C19.7631 35.5291 19.6445 35.7352 19.4604 35.8536C19.2887 35.9634 19.0636 36.0094 18.785 35.9914L13.5343 35.8041ZM21.4456 35.7743L23.365 36.2197L22.6346 40.2501C22.5449 40.2664 22.4194 40.2707 22.2582 40.2632C22.0951 40.2661 21.919 40.2505 21.7301 40.2163C21.3732 40.1516 21.117 40.0401 20.9614 39.8818C20.8182 39.715 20.777 39.4636 20.8379 39.1277L21.4456 35.7743ZM23.1852 37.2116L21.2659 36.7662L22.5469 29.6973C22.6242 29.6896 22.7444 29.6843 22.9075 29.6814C23.0812 29.6803 23.2572 29.696 23.4356 29.7283C23.8135 29.7968 24.074 29.9144 24.2172 30.0813C24.3623 30.2377 24.4044 30.4838 24.3436 30.8197L23.1852 37.2116ZM26.0799 38.0776L26.2466 36.7094L30.58 36.8443C30.6208 36.4398 30.5313 36.0658 30.3117 35.7225C30.0921 35.3792 29.7199 35.1599 29.1951 35.0648C28.6598 34.9678 28.1795 35.0759 27.7542 35.3891C27.3307 35.6918 27.051 36.1885 26.915 36.8793L26.8139 37.7066C26.7866 38.3954 26.9543 38.9353 27.3171 39.3263C27.6904 39.7191 28.2024 39.9745 28.8531 40.0924C29.2939 40.1723 29.7147 40.1835 30.1153 40.126C30.5179 40.0581 30.8437 39.9653 31.0926 39.8479C31.2224 39.9689 31.316 40.1106 31.3733 40.2727C31.4431 40.4263 31.4627 40.587 31.4323 40.755C31.3828 41.0279 31.2193 41.2421 30.9418 41.3978C30.6662 41.543 30.3142 41.631 29.8858 41.6617C29.4575 41.6925 28.9809 41.6603 28.4561 41.5652C27.6479 41.4188 26.9556 41.1416 26.3791 40.7336C25.815 40.317 25.4088 39.7772 25.1603 39.1143C24.9224 38.4532 24.8843 37.6767 25.0459 36.7845C25.162 36.1443 25.3634 35.6008 25.6503 35.1542C25.9373 34.7075 26.2772 34.3572 26.6701 34.1032C27.0754 33.8406 27.518 33.6715 27.9978 33.5958C28.4796 33.5097 28.9671 33.5113 29.4604 33.6007C30.1531 33.7262 30.731 33.9773 31.1939 34.3539C31.6692 34.7219 32.0091 35.1791 32.2136 35.7257C32.4286 36.2741 32.4781 36.8685 32.362 37.5087C32.3088 37.8026 32.1901 38.0088 32.0061 38.1272C31.8344 38.237 31.6093 38.2829 31.3307 38.2649L26.0799 38.0776ZM38.0605 36.769C37.4308 36.6549 36.8637 36.7635 36.3592 37.0949C35.8652 37.4281 35.5468 37.9883 35.4042 38.7755C35.2634 39.5522 35.3616 40.177 35.6986 40.65C36.0357 41.1231 36.5296 41.4185 37.1803 41.5365C37.5686 41.6068 37.9026 41.6186 38.1821 41.5717C38.474 41.5162 38.7301 41.4487 38.9505 41.3694C39.0908 41.4924 39.1906 41.6298 39.2498 41.7814C39.3214 41.9245 39.3401 42.0905 39.3059 42.2794C39.2412 42.6363 38.9728 42.8911 38.5006 43.0441C38.0304 43.1865 37.4436 43.194 36.7404 43.0665C35.9427 42.922 35.2652 42.6529 34.7078 42.2592C34.1628 41.8569 33.7704 41.3304 33.5305 40.6799C33.3012 40.0313 33.2645 39.2767 33.4205 38.416C33.5822 37.5239 33.8947 36.8163 34.358 36.2932C34.8319 35.772 35.3936 35.4239 36.0433 35.2489C36.7053 35.0654 37.3984 35.0392 38.1226 35.1705C38.8153 35.296 39.3497 35.5175 39.7258 35.835C40.1019 36.1525 40.2576 36.4896 40.1929 36.8465C40.1644 37.0039 40.0958 37.1433 39.9871 37.2645C39.8784 37.3857 39.7587 37.4779 39.628 37.5409C39.4409 37.3769 39.2247 37.2239 38.9795 37.0819C38.7342 36.9399 38.4279 36.8356 38.0605 36.769ZM41.5072 39.4099L43.4437 39.7609L43.107 41.6186C43.0443 41.965 43.0993 42.2297 43.2721 42.4128C43.4553 42.5978 43.7359 42.7245 44.1137 42.793C44.2817 42.8234 44.4639 42.8347 44.6604 42.827C44.8675 42.8211 45.0449 42.7991 45.1928 42.7608C45.251 42.8581 45.3012 42.9702 45.3432 43.0971C45.3853 43.2239 45.3911 43.3713 45.3607 43.5393C45.3055 43.8436 45.1129 44.0689 44.7829 44.2151C44.4634 44.3631 43.9992 44.382 43.3905 44.2717C42.5613 44.1214 41.9386 43.8189 41.5224 43.364C41.1186 42.9006 40.9927 42.249 41.1449 41.4094L41.5072 39.4099ZM42.979 38.0181L43.2558 36.491L46.3415 37.0502C46.3702 37.1312 46.3931 37.2438 46.4104 37.3879C46.4381 37.5338 46.4387 37.6803 46.4121 37.8272C46.3645 38.0896 46.2654 38.2776 46.1147 38.3912C45.966 38.4943 45.7919 38.5278 45.5924 38.4917L42.979 38.0181ZM43.3667 40.186L41.4302 39.835L42.4573 34.1673C42.547 34.1511 42.6734 34.1415 42.8365 34.1385C43.0102 34.1374 43.1862 34.1531 43.3646 34.1854C43.732 34.252 43.9872 34.3687 44.1305 34.5356C44.2756 34.692 44.3177 34.9381 44.2568 35.274L43.3667 40.186ZM47.9733 42.0452L48.14 40.677L52.4734 40.8119C52.5142 40.4073 52.4247 40.0334 52.2051 39.6901C51.9855 39.3467 51.6133 39.1275 51.0885 39.0324C50.5532 38.9354 50.0729 39.0435 49.6476 39.3567C49.2241 39.6593 48.9444 40.1561 48.8084 40.8469L48.7073 41.6741C48.68 42.363 48.8477 42.9029 49.2105 43.2938C49.5838 43.6867 50.0958 43.9421 50.7465 44.06C51.1873 44.1399 51.6081 44.1511 52.0087 44.0936C52.4113 44.0256 52.7371 43.9329 52.986 43.8154C53.1158 43.9365 53.2094 44.0781 53.2667 44.2403C53.3365 44.3939 53.3561 44.5546 53.3257 44.7225C53.2762 44.9954 53.1127 45.2097 52.8352 45.3654C52.5596 45.5105 52.2076 45.5985 51.7792 45.6293C51.3509 45.6601 50.8743 45.6279 50.3495 45.5328C49.5413 45.3864 48.849 45.1091 48.2725 44.7011C47.7084 44.2845 47.3022 43.7448 47.0537 43.0818C46.8158 42.4208 46.7777 41.6442 46.9393 40.7521C47.0554 40.1119 47.2568 39.5684 47.5437 39.1217C47.8307 38.6751 48.1706 38.3247 48.5635 38.0707C48.9688 37.8081 49.4114 37.639 49.8912 37.5634C50.373 37.4772 50.8605 37.4789 51.3538 37.5683C52.0465 37.6938 52.6244 37.9448 53.0873 38.3214C53.5626 38.6894 53.9025 39.1467 54.107 39.6933C54.322 40.2417 54.3715 40.8361 54.2554 41.4763C54.2022 41.7702 54.0835 41.9763 53.8995 42.0947C53.7278 42.2045 53.5027 42.2505 53.2241 42.2325L47.9733 42.0452ZM60.2457 45.4075L61.1416 40.464L63.078 40.8149L62.1451 45.9631C62.1032 46.194 62.0156 46.3786 61.8821 46.517C61.761 46.6469 61.5779 46.76 61.3327 46.8565C61.0504 46.9788 60.6879 47.0649 60.2453 47.1148C59.8112 47.177 59.3108 47.1568 58.744 47.0541C57.9149 46.9038 57.2154 46.6361 56.6456 46.251C56.0777 45.8554 55.6729 45.3376 55.4311 44.6976C55.1913 44.047 55.1522 43.2757 55.3139 42.3836C55.4794 41.4704 55.7833 40.7504 56.2257 40.2235C56.6785 39.6986 57.2183 39.3519 57.8451 39.1836C58.4737 39.0049 59.1396 38.9792 59.8428 39.1066C60.2311 39.177 60.5742 39.288 60.8719 39.4395C61.1802 39.5929 61.4226 39.7507 61.5992 39.9128L61.2996 41.5658C61.1602 41.378 60.9645 41.2016 60.7126 41.0367C60.4606 40.8718 60.1562 40.757 59.7994 40.6923C59.411 40.6219 59.0442 40.6422 58.6989 40.753C58.3555 40.8534 58.0613 41.0711 57.8163 41.4061C57.5732 41.7307 57.3993 42.1815 57.2947 42.7588C57.1464 43.5775 57.2269 44.21 57.5362 44.6563C57.8456 45.1026 58.3204 45.3838 58.9606 45.4998C59.244 45.5512 59.4911 45.5634 59.702 45.5366C59.9128 45.5097 60.094 45.4667 60.2457 45.4075ZM63.0067 41.2085L61.0674 40.8733L61.8035 36.8115C61.8808 36.8038 62.001 36.7985 62.1641 36.7955C62.3378 36.7945 62.5138 36.8101 62.6922 36.8425C63.0701 36.9109 63.3306 37.0286 63.4738 37.1955C63.6189 37.3519 63.661 37.598 63.6001 37.9338L63.0067 41.2085ZM76.0491 41.3444C76.013 41.5438 75.9229 41.7118 75.779 41.8483C75.6474 41.9762 75.5005 42.0688 75.3383 42.1262C75.1083 41.9002 74.8334 41.6823 74.5137 41.4726C74.1939 41.2629 73.7822 41.1124 73.2784 41.0211C72.6906 40.9146 72.1473 40.9517 71.6484 41.1323C71.162 41.3043 70.7462 41.6246 70.4011 42.0932C70.0684 42.5533 69.8355 43.1507 69.7023 43.8854C69.5007 44.9979 69.6257 45.8932 70.0774 46.5713C70.5309 47.2389 71.2195 47.6563 72.1432 47.8237C72.6365 47.9131 73.0739 47.9219 73.4555 47.8502C73.8371 47.7784 74.1752 47.6771 74.4699 47.5462C74.5912 47.6549 74.6838 47.8017 74.7478 47.9868C74.8242 48.1632 74.8444 48.3512 74.8083 48.5506C74.7759 48.729 74.6992 48.8832 74.5781 49.013C74.4675 49.1447 74.2916 49.2483 74.0502 49.3238C73.807 49.4098 73.4817 49.4701 73.0743 49.5047C72.6775 49.5412 72.1904 49.5071 71.6131 49.4025C70.7105 49.2389 69.9189 48.9112 69.2384 48.4193C68.5703 47.9188 68.0876 47.2622 67.7904 46.4495C67.4952 45.6264 67.4502 44.648 67.6557 43.5145C67.8554 42.4124 68.2379 41.5278 68.8033 40.8606C69.3686 40.1934 70.0477 39.7364 70.8404 39.4898C71.6349 39.2327 72.4625 39.1822 73.3232 39.3381C73.9319 39.4485 74.4444 39.6118 74.8605 39.8281C75.2871 40.0464 75.6011 40.2875 75.8025 40.5517C76.0145 40.8178 76.0967 41.082 76.0491 41.3444ZM79.3765 49.2809C79.6914 49.338 79.9805 49.3578 80.2438 49.3405C80.5071 49.3232 80.7031 49.2883 80.8319 49.2357L81.1571 47.4409L79.57 47.3159C79.134 47.2694 78.7862 47.304 78.5268 47.4196C78.2797 47.5266 78.1296 47.727 78.0763 48.0209C78.0212 48.3252 78.0981 48.5885 78.3072 48.8107C78.5163 49.0329 78.8727 49.1896 79.3765 49.2809ZM80.4618 42.8433C81.4904 43.0297 82.2691 43.3984 82.798 43.9496C83.3288 44.4902 83.5095 45.2276 83.3402 46.1617L82.684 49.7827C82.6384 50.0346 82.5393 50.2226 82.3867 50.3468C82.2446 50.4728 82.0686 50.5764 81.8588 50.6576C81.5345 50.7723 81.1371 50.8412 80.6668 50.8644C80.1946 50.898 79.6751 50.8635 79.1083 50.7608C78.0587 50.5706 77.271 50.2219 76.745 49.7146C76.2209 49.1969 76.0311 48.5392 76.1757 47.7415C76.3031 47.0383 76.6206 46.5429 77.1279 46.2555C77.6477 45.9594 78.3403 45.8464 79.2057 45.9165L81.3868 46.0841L81.4381 45.8008C81.5142 45.3809 81.4224 45.0499 81.1628 44.8077C80.9136 44.5675 80.5267 44.3998 80.0019 44.3047C79.5925 44.2305 79.1842 44.2107 78.7768 44.2453C78.3695 44.2798 78.0003 44.343 77.6693 44.4348C77.5795 44.3318 77.506 44.1993 77.4487 44.0371C77.3913 43.8749 77.3769 43.7151 77.4054 43.5577C77.4739 43.1799 77.7342 42.9398 78.1864 42.8374C78.505 42.7542 78.8642 42.7163 79.2639 42.7237C79.6742 42.733 80.0735 42.7729 80.4618 42.8433ZM85.2018 47.3284L87.1382 47.6793L86.8016 49.537C86.7388 49.8834 86.7938 50.1481 86.9666 50.3312C87.1499 50.5162 87.4305 50.6429 87.8083 50.7114C87.9762 50.7418 88.1585 50.7531 88.355 50.7454C88.562 50.7396 88.7395 50.7175 88.8873 50.6793C88.9456 50.7765 88.9957 50.8886 89.0378 51.0155C89.0798 51.1423 89.0856 51.2897 89.0552 51.4577C89 51.7621 88.8075 51.9873 88.4774 52.1335C88.1579 52.2815 87.6938 52.3004 87.085 52.1901C86.2559 52.0398 85.6332 51.7373 85.2169 51.2824C84.8131 50.819 84.6873 50.1675 84.8394 49.3278L85.2018 47.3284ZM86.6736 45.9365L86.9503 44.4094L90.036 44.9686C90.0647 45.0497 90.0877 45.1622 90.1049 45.3063C90.1327 45.4522 90.1332 45.5987 90.1066 45.7456C90.0591 46.008 89.96 46.196 89.8093 46.3096C89.6605 46.4128 89.4864 46.4463 89.287 46.4101L86.6736 45.9365ZM87.0612 48.1044L85.1247 47.7534L86.1519 42.0858C86.2415 42.0695 86.3679 42.0599 86.5311 42.0569C86.7047 42.0559 86.8807 42.0715 87.0592 42.1038C87.4265 42.1704 87.6818 42.2871 87.825 42.454C87.9701 42.6104 88.0122 42.8565 87.9514 43.1924L87.0612 48.1044ZM91.6679 49.9636L91.8345 48.5954L96.1679 48.7303C96.2087 48.3257 96.1193 47.9518 95.8997 47.6085C95.68 47.2651 95.3078 47.0459 94.783 46.9508C94.2478 46.8538 93.7674 46.9619 93.3421 47.2751C92.9187 47.5778 92.639 48.0745 92.5029 48.7653L92.4018 49.5925C92.3745 50.2814 92.5423 50.8213 92.905 51.2122C93.2783 51.6051 93.7903 51.8605 94.441 51.9784C94.8819 52.0583 95.3026 52.0695 95.7033 52.012C96.1059 51.9441 96.4316 51.8513 96.6805 51.7338C96.8104 51.8549 96.9039 51.9966 96.9613 52.1587C97.031 52.3123 97.0507 52.473 97.0202 52.6409C96.9708 52.9138 96.8073 53.1281 96.5297 53.2838C96.2541 53.429 95.9021 53.5169 95.4738 53.5477C95.0454 53.5785 94.5688 53.5463 94.0441 53.4512C93.2359 53.3048 92.5436 53.0275 91.9671 52.6195C91.403 52.2029 90.9967 51.6632 90.7483 51.0003C90.5103 50.3392 90.4722 49.5627 90.6339 48.6705C90.7499 48.0303 90.9514 47.4868 91.2383 47.0402C91.5252 46.5935 91.8651 46.2432 92.258 45.9892C92.6634 45.7266 93.106 45.5574 93.5858 45.4818C94.0675 45.3956 94.5551 45.3973 95.0484 45.4867C95.7411 45.6122 96.3189 45.8633 96.7818 46.2398C97.2572 46.6078 97.5971 47.0651 97.8016 47.6117C98.0166 48.1601 98.066 48.7545 97.95 49.3947C97.8967 49.6886 97.7781 49.8947 97.594 50.0131C97.4224 50.123 97.1972 50.1689 96.9186 50.1509L91.6679 49.9636ZM101.85 54.3618C101.231 54.2495 100.68 54.0304 100.197 53.7044C99.7157 53.3679 99.3672 52.8982 99.1513 52.2954C98.9353 51.6926 98.9081 50.9451 99.0698 50.0529C99.2182 49.2343 99.4993 48.5806 99.913 48.0919C100.339 47.5946 100.866 47.2618 101.492 47.0935C102.131 46.9166 102.829 46.8967 103.585 47.0336C104.12 47.1306 104.601 47.2882 105.027 47.5065C105.464 47.7266 105.803 47.9506 106.044 48.1785C106.201 48.3263 106.317 48.4937 106.392 48.6806C106.479 48.859 106.501 49.0636 106.46 49.2945L105.569 54.2065L103.68 53.8641L104.539 49.1253C104.418 49.0166 104.263 48.9127 104.075 48.8136C103.887 48.7145 103.646 48.6383 103.352 48.585C102.775 48.4804 102.27 48.5733 101.838 48.8636C101.417 49.1557 101.139 49.6692 101.006 50.4039C100.86 51.212 100.93 51.8102 101.218 52.1983C101.516 52.5884 101.922 52.83 102.436 52.9232C102.835 52.9955 103.167 52.9853 103.433 52.8926C103.71 52.8018 103.947 52.6929 104.143 52.5659L103.921 54.1516C103.705 54.2643 103.419 54.348 103.062 54.4026C102.716 54.4591 102.312 54.4455 101.85 54.3618ZM103.509 54.9876L103.789 53.4448L105.646 53.7814L105.355 55.3873C105.226 56.101 104.959 56.6488 104.553 57.0306C104.146 57.423 103.64 57.6727 103.036 57.7799C102.441 57.889 101.798 57.8808 101.105 57.7553C100.559 57.6564 100.091 57.5174 99.7008 57.3382C99.321 57.161 99.0471 56.9975 98.8791 56.8478C98.5708 56.5752 98.4499 56.2551 98.5165 55.8878C98.5507 55.6989 98.6232 55.5386 98.7337 55.4068C98.8443 55.2751 98.964 55.183 99.0928 55.1304C99.3247 55.3459 99.6235 55.5518 99.989 55.7481C100.365 55.9464 100.773 56.0854 101.214 56.1653C101.844 56.2794 102.36 56.2429 102.763 56.0556C103.163 55.8789 103.412 55.5229 103.509 54.9876ZM115.353 53.2314C115.206 54.0396 114.922 54.7143 114.498 55.2555C114.077 55.7862 113.548 56.1619 112.912 56.3827C112.288 56.5948 111.588 56.6305 110.811 56.4898C110.034 56.349 109.386 56.0689 108.866 55.6494C108.347 55.2194 107.979 54.6811 107.76 54.0344C107.552 53.3896 107.522 52.6578 107.67 51.8391C107.816 51.031 108.106 50.3625 108.538 49.8337C108.969 49.3049 109.503 48.9354 110.137 48.7251C110.773 48.5044 111.474 48.4634 112.24 48.6023C113.007 48.7411 113.644 49.0246 114.151 49.4526C114.672 49.8721 115.035 50.4095 115.241 51.0649C115.46 51.7116 115.497 52.4338 115.353 53.2314ZM111.961 50.1451C111.384 50.0405 110.889 50.1677 110.477 50.5267C110.076 50.8875 109.806 51.4458 109.669 52.2015C109.529 52.9782 109.583 53.6059 109.832 54.0847C110.083 54.553 110.503 54.8404 111.091 54.9469C111.668 55.0515 112.157 54.9234 112.559 54.5625C112.96 54.2017 113.23 53.6381 113.369 52.872C113.504 52.1268 113.447 51.5148 113.198 51.036C112.95 50.5467 112.538 50.2497 111.961 50.1451ZM119.299 51.9464L118.908 54.1033L116.971 53.7524L117.391 51.4381C117.438 51.1757 117.541 50.9667 117.699 50.8111C117.86 50.645 118.069 50.5041 118.329 50.3886C118.678 50.2567 119.105 50.1715 119.611 50.1331C120.117 50.0946 120.648 50.1258 121.204 50.2266C122.19 50.4054 122.629 50.7992 122.518 51.4079C122.492 51.5549 122.446 51.6875 122.381 51.8059C122.318 51.9137 122.247 52.0091 122.167 52.0922C122.065 52.0522 121.937 52.0127 121.782 51.9736C121.628 51.9241 121.462 51.8832 121.283 51.8509C120.906 51.7824 120.541 51.7597 120.19 51.7828C119.851 51.7973 119.554 51.8519 119.299 51.9464ZM117.088 53.1069L119.008 53.5523L118.277 57.5826C118.188 57.5989 118.062 57.6033 117.901 57.5957C117.738 57.5987 117.562 57.5831 117.373 57.5488C117.016 57.4842 116.76 57.3727 116.604 57.2144C116.461 57.0475 116.42 56.7961 116.481 56.4603L117.088 53.1069ZM124.234 48.7107C124.29 48.4064 124.441 48.1682 124.689 47.9964C124.948 47.8264 125.24 47.7709 125.565 47.8299C125.901 47.8907 126.149 48.0442 126.311 48.2902C126.483 48.5382 126.541 48.8144 126.486 49.1187C126.433 49.4126 126.281 49.6507 126.031 49.8331C125.794 50.0069 125.507 50.0633 125.171 50.0025C124.846 49.9435 124.592 49.7891 124.41 49.5392C124.24 49.2808 124.181 49.0046 124.234 48.7107ZM123.393 54.2495L125.346 54.6033L124.598 58.7281C124.508 58.7444 124.383 58.7488 124.222 58.7412C124.059 58.7442 123.882 58.7285 123.694 58.6943C123.337 58.6296 123.08 58.5181 122.925 58.3599C122.771 58.1911 122.725 57.9388 122.786 57.6029L123.393 54.2495ZM125.166 55.5951L123.214 55.2414L123.978 51.0221C124.068 51.0058 124.193 51.0014 124.355 51.009C124.528 51.0079 124.71 51.0245 124.898 51.0588C125.266 51.1253 125.521 51.2421 125.664 51.4089C125.809 51.5653 125.851 51.8167 125.788 52.163L125.166 55.5951ZM128.029 56.553L128.195 55.1848L132.529 55.3197C132.57 54.9151 132.48 54.5412 132.261 54.1979C132.041 53.8545 131.669 53.6353 131.144 53.5402C130.609 53.4432 130.128 53.5513 129.703 53.8645C129.28 54.1672 129 54.6639 128.864 55.3547L128.763 56.1819C128.735 56.8708 128.903 57.4107 129.266 57.8016C129.639 58.1945 130.151 58.4499 130.802 58.5678C131.243 58.6477 131.663 58.6589 132.064 58.6014C132.467 58.5335 132.792 58.4407 133.041 58.3232C133.171 58.4443 133.265 58.5859 133.322 58.7481C133.392 58.9017 133.412 59.0624 133.381 59.2303C133.332 59.5032 133.168 59.7175 132.891 59.8732C132.615 60.0184 132.263 60.1063 131.835 60.1371C131.406 60.1679 130.93 60.1357 130.405 60.0406C129.597 59.8942 128.904 59.6169 128.328 59.2089C127.764 58.7923 127.358 58.2526 127.109 57.5896C126.871 56.9286 126.833 56.152 126.995 55.2599C127.111 54.6197 127.312 54.0762 127.599 53.6296C127.886 53.1829 128.226 52.8326 128.619 52.5786C129.024 52.316 129.467 52.1468 129.947 52.0712C130.428 51.985 130.916 51.9867 131.409 52.0761C132.102 52.2016 132.68 52.4527 133.143 52.8292C133.618 53.1972 133.958 53.6545 134.162 54.2011C134.377 54.7495 134.427 55.3439 134.311 55.9841C134.258 56.278 134.139 56.4841 133.955 56.6025C133.783 56.7124 133.558 56.7583 133.28 56.7403L128.029 56.553ZM141.267 59.6025C141.134 60.3372 140.757 60.8651 140.135 61.186C139.515 61.4964 138.685 61.5575 137.646 61.3692C136.807 61.217 136.142 60.9665 135.652 60.6176C135.163 60.2687 134.956 59.8843 135.032 59.4645C135.064 59.286 135.136 59.131 135.246 58.9992C135.359 58.857 135.491 58.7563 135.643 58.6971C135.902 58.9392 136.213 59.169 136.575 59.3863C136.936 59.6036 137.364 59.757 137.857 59.8464C138.749 60.008 139.245 59.816 139.344 59.2702C139.386 59.0393 139.34 58.8414 139.207 58.6764C139.077 58.5009 138.854 58.3522 138.54 58.2303L137.686 57.8315C136.95 57.5247 136.425 57.1587 136.112 56.7333C135.81 56.3099 135.712 55.7991 135.821 55.2008C135.941 54.5396 136.312 54.0485 136.933 53.7276C137.557 53.3962 138.352 53.318 139.317 53.4929C139.821 53.5842 140.263 53.7185 140.643 53.8957C141.025 54.0625 141.309 54.2603 141.495 54.4892C141.691 54.7199 141.766 54.9665 141.718 55.2289C141.686 55.4073 141.615 55.5624 141.504 55.6941C141.406 55.8173 141.287 55.9041 141.148 55.9548C141.035 55.8585 140.876 55.7484 140.671 55.6245C140.478 55.492 140.25 55.3748 139.987 55.2728C139.725 55.1604 139.458 55.0795 139.185 55.03C138.776 54.9558 138.438 54.9651 138.172 55.0578C137.918 55.1419 137.77 55.3046 137.726 55.546C137.694 55.7245 137.734 55.889 137.848 56.0397C137.961 56.1904 138.174 56.3319 138.486 56.4644L139.255 56.7988C140.069 57.1523 140.635 57.5584 140.953 58.0171C141.273 58.4653 141.378 58.9938 141.267 59.6025Z" fill="#676A84"/><path d="M58.7234 56.2083C52.2234 71.7083 45.7234 81.2083 21.7234 81.2083" stroke="#696D86" stroke-width="2" stroke-dasharray="3 5"/><path d="M20.406 87.9499L20.0098 73.555C20.0053 73.4092 19.9611 73.2675 19.8819 73.145C19.8027 73.0225 19.6916 72.9238 19.5604 72.8597C19.4293 72.7955 19.2831 72.7683 19.1376 72.781C18.9921 72.7936 18.8528 72.8456 18.7347 72.9314L8.51818 80.4156C8.09459 80.7258 8.11436 81.4439 8.5544 81.7311L19.1672 88.6419C19.2896 88.7219 19.4316 88.7669 19.5779 88.7719C19.7241 88.777 19.8689 88.742 19.9966 88.6707C20.1243 88.5993 20.23 88.4944 20.3022 88.3674C20.3744 88.2403 20.4103 88.0959 20.406 87.9499Z" fill="white"/></svg>